<svg xmlns="http://www.w3.org/2000/svg" viewBox="0 0 96 96">
  
<g transform="matrix(6.857142857142857,0,0,6.857142857142857,0,0)"><g>
    <path d="M.5,4V1.5a1,1,0,0,1,1-1H4" style="fill: none;stroke: #000000;stroke-linecap: round;stroke-linejoin: round"></path>
    <path d="M13.5,4V1.5a1,1,0,0,0-1-1H10" style="fill: none;stroke: #000000;stroke-linecap: round;stroke-linejoin: round"></path>
    <path d="M.5,10v2.5a1,1,0,0,0,1,1H4" style="fill: none;stroke: #000000;stroke-linecap: round;stroke-linejoin: round"></path>
    <path d="M13.5,10v2.5a1,1,0,0,1-1,1H10" style="fill: none;stroke: #000000;stroke-linecap: round;stroke-linejoin: round"></path>
    <polyline points="1 7.5 3.5 7.5 5 3.5 7 9 9 5 10.5 7.5 13 7.5" style="fill: none;stroke: #000000;stroke-linecap: round;stroke-linejoin: round"></polyline>
  </g></g></svg>