<svg xmlns="http://www.w3.org/2000/svg" xmlns:xlink="http://www.w3.org/1999/xlink" version="1.1" x="0px" y="0px" viewBox="0 0 96 96" enable-background="new 0 0 96 96" xml:space="preserve"><path d="M39.677,69.341c14.939,0,27.093-12.154,27.093-27.094c0-14.938-12.154-27.092-27.093-27.092S12.584,27.309,12.584,42.247  C12.584,57.187,24.738,69.341,39.677,69.341z M39.677,18.155c13.285,0,24.093,10.808,24.093,24.092  c0,13.285-10.808,24.094-24.093,24.094S15.584,55.532,15.584,42.247C15.584,28.963,26.392,18.155,39.677,18.155z"/><path d="M4,42.247C4,61.92,20.004,77.925,39.677,77.925c8.859,0,19.269-6.238,19.708-6.504c0.531-0.32,1.235-0.497,1.984-0.497  c1.04,0,2.047,0.336,2.696,0.9l16.8,14.611c0.997,0.867,2.278,1.345,3.605,1.345c1.597,0,3.111-0.687,4.155-1.886l0.382-0.44  c0.961-1.104,1.435-2.521,1.333-3.991c-0.103-1.469-0.768-2.807-1.873-3.768L71.77,63.174c-1.141-0.992-1.551-3.051-0.876-4.404  c0.182-0.365,4.459-9.039,4.459-16.522c0-19.672-16.004-35.676-35.677-35.676S4,22.575,4,42.247z M39.677,9.571  c18.018,0,32.677,14.658,32.677,32.676c0,6.771-4.104,15.102-4.145,15.185c-1.291,2.59-0.591,6.106,1.593,8.006l16.696,14.521  c0.5,0.436,0.802,1.044,0.848,1.713c0.047,0.669-0.167,1.313-0.604,1.814l-0.382,0.44c-0.473,0.543-1.162,0.854-1.891,0.854  c-0.604,0-1.186-0.216-1.637-0.608l-16.8-14.611c-1.196-1.04-2.896-1.637-4.665-1.637c-1.307,0-2.53,0.321-3.537,0.931  c-0.1,0.061-10.14,6.07-18.155,6.07C21.659,74.925,7,60.266,7,42.247C7,24.229,21.659,9.571,39.677,9.571z"/><path d="M55.873,42.247h3c0-10.584-8.611-19.195-19.196-19.195v3C48.607,26.052,55.873,33.317,55.873,42.247z"/></svg>