<svg xmlns="http://www.w3.org/2000/svg" viewBox="0 0 96 96">
  
<g transform="matrix(6.857142857142857,0,0,6.857142857142857,0,0)"><g>
    <rect x="3" y="3" width="4" height="4" rx="1" style="fill: none;stroke: #000000;stroke-linecap: round;stroke-linejoin: round"></rect>
    <path d="M3,.5H1.5a1,1,0,0,0-1,1V3" style="fill: none;stroke: #000000;stroke-linecap: round;stroke-linejoin: round"></path>
    <path d="M11,.5h1.5a1,1,0,0,1,1,1V3" style="fill: none;stroke: #000000;stroke-linecap: round;stroke-linejoin: round"></path>
    <path d="M3,13.5H1.5a1,1,0,0,1-1-1V11" style="fill: none;stroke: #000000;stroke-linecap: round;stroke-linejoin: round"></path>
    <path d="M11,13.5h1.5a1,1,0,0,0,1-1V11" style="fill: none;stroke: #000000;stroke-linecap: round;stroke-linejoin: round"></path>
    <polyline points="3 9.5 3 11 4.5 11" style="fill: none;stroke: #000000;stroke-linecap: round;stroke-linejoin: round"></polyline>
    <polyline points="7 11 7 9.5 5.5 9.5" style="fill: none;stroke: #000000;stroke-linecap: round;stroke-linejoin: round"></polyline>
    <polyline points="11 4.5 9.5 4.5 9.5 3" style="fill: none;stroke: #000000;stroke-linecap: round;stroke-linejoin: round"></polyline>
    <polyline points="11 8 11 6.5 9.5 6.5" style="fill: none;stroke: #000000;stroke-linecap: round;stroke-linejoin: round"></polyline>
    <polyline points="9.5 9.5 9.5 11 11 11" style="fill: none;stroke: #000000;stroke-linecap: round;stroke-linejoin: round"></polyline>
  </g></g></svg>