<svg width="96" height="96" xmlns="http://www.w3.org/2000/svg" xml:space="preserve" enable-background="new 0 0 96 96" version="1.1">

 <g>
  <title>Layer 1</title>
  <path id="svg_1" d="m65.02,87.181l-34.04,0c-5.754,0 -10.436,-4.682 -10.436,-10.436l0,-23.998c0,-5.754 4.682,-10.436 10.436,-10.436l34.04,0c5.75401,0 10.436,4.682 10.436,10.436l0,23.999c0,5.754 -4.682,10.435 -10.436,10.435zm-34.04,-41.87c-4.1,0 -7.436,3.336 -7.436,7.436l0,23.999c0,4.1 3.336,7.436 7.436,7.436l34.04,0c4.10001,0 7.436,-3.336 7.436,-7.436l0,-23.999c0,-4.1 -3.336,-7.436 -7.436,-7.436l-34.04,0z"/>
  <polygon id="svg_2" points="44.547000885009766,71.74199676513672 36.1870002746582,63.38100051879883 38.30799865722656,61.2599983215332 44.547000885009766,67.5 57.69200134277344,54.35499954223633 59.8129997253418,56.47600173950195 "/>
  <path id="svg_3" d="m38.644,44.583l-3,0l0,-9.862c0,-6.813 5.543,-12.356 12.355,-12.356c6.813,0 12.356,5.543 12.356,12.356l0,9.807l-3,0l0,-9.807c0,-5.159 -4.197,-9.356 -9.356,-9.356c-5.158,0 -9.355,4.197 -9.355,9.356l0,9.862z"/>
  <path id="svg_4" d="m69.902,44.583l-3,0l0,-9.862c0,-10.423 -8.479,-18.902 -18.902,-18.902s-18.902,8.479 -18.902,18.902l0,9.862l-3,0l0,-9.862c0,-12.077 9.825,-21.902 21.902,-21.902s21.902,9.825 21.902,21.902l0,9.862z"/>
 </g>
</svg>