<svg xmlns="http://www.w3.org/2000/svg" viewBox="0 0 256.55 75"><g id="Layer_2" data-name="Layer 2"><g id="Layer_1-2" data-name="Layer 1"><path d="M6.62,24a7.14,7.14,0,0,1-2.23-5.24,7,7,0,0,1,2.23-5.25,7.48,7.48,0,0,1,5.44-2.18,7.4,7.4,0,0,1,5.42,2.18,7.08,7.08,0,0,1,2.2,5.25A7.19,7.19,0,0,1,17.48,24a7.29,7.29,0,0,1-5.42,2.23A7.36,7.36,0,0,1,6.62,24ZM4.88,32.89H19.19V85.23H4.88Z" transform="translate(-4.39 -11.3)"/><path d="M26,14.77H40.79V85.23H26Zm7.42,36.72H50.75q6.34,0,9.86-3.25T64.13,39v-.1q0-6.06-3.52-9.25t-9.86-3.2H33.46V14.77h20.9a27,27,0,0,1,13,3A21.65,21.65,0,0,1,76,26.2a25.17,25.17,0,0,1,3.1,12.69V39A25.12,25.12,0,0,1,76,51.64a21.62,21.62,0,0,1-8.67,8.42,27,27,0,0,1-13,3H33.46Z" transform="translate(-4.39 -11.3)"/><path d="M87.76,84a15,15,0,0,1-8.42-13.79v-.1a13.31,13.31,0,0,1,5.34-11.2Q90,54.86,99.75,54.22L120.16,53v8.89L101.9,63.06A11.13,11.13,0,0,0,95.65,65a5.29,5.29,0,0,0-2.15,4.44v.1A5.3,5.3,0,0,0,95.7,74a9.65,9.65,0,0,0,5.9,1.64,12.63,12.63,0,0,0,5.69-1.25,9.94,9.94,0,0,0,4-3.41,8.61,8.61,0,0,0,1.44-4.86V50.22a7,7,0,0,0-2.2-5.47c-1.46-1.33-3.6-2-6.4-2a10.89,10.89,0,0,0-6.34,1.63,6.66,6.66,0,0,0-2.88,4.18l-.1.44H81.68l0-.59A16.58,16.58,0,0,1,85,39.82a18.37,18.37,0,0,1,7.81-5.88,30.25,30.25,0,0,1,11.89-2.13A29.44,29.44,0,0,1,116.45,34a18,18,0,0,1,7.74,6.13A15.74,15.74,0,0,1,127,49.34V85.23H112.69V77.47h-.3a17.31,17.31,0,0,1-3.8,4.59,16.18,16.18,0,0,1-5.25,3,19.18,19.18,0,0,1-6.38,1A20,20,0,0,1,87.76,84Z" transform="translate(-4.39 -11.3)"/><path d="M139.75,82.64q-4.19-3.66-4.19-12.06V43.63h-7.28V32.89h7.28V20.09H150v12.8h9.57V43.63H150V69c0,2.44.54,4.14,1.64,5.1a7.15,7.15,0,0,0,4.85,1.44,17.07,17.07,0,0,0,1.71-.07c.49,0,1-.11,1.37-.17V85.77q-1.17.2-2.91.36a39,39,0,0,1-4,.17Q144,86.3,139.75,82.64Z" transform="translate(-4.39 -11.3)"/><path d="M171.22,83a22.38,22.38,0,0,1-9-9.44A31.42,31.42,0,0,1,159.11,59v0a31,31,0,0,1,3.17-14.48,22.51,22.51,0,0,1,9-9.37,29.83,29.83,0,0,1,25.95-.64,20.81,20.81,0,0,1,8.18,7.2,20.35,20.35,0,0,1,3.25,10.21v.34H195.34l-.05-.44a11.21,11.21,0,0,0-3.22-6.25A9.62,9.62,0,0,0,185,43a9.75,9.75,0,0,0-6,1.93,12.28,12.28,0,0,0-4,5.52A23.65,23.65,0,0,0,173.66,59v.05a24.07,24.07,0,0,0,1.39,8.71,11.85,11.85,0,0,0,4,5.47,9.92,9.92,0,0,0,6.07,1.88A9.76,9.76,0,0,0,192,72.71a10.94,10.94,0,0,0,3.3-6.38l.1-.44h13.28v.3a20.66,20.66,0,0,1-3.32,10.25,20.93,20.93,0,0,1-8.18,7.2A26.34,26.34,0,0,1,185,86.3,27.21,27.21,0,0,1,171.22,83Z" transform="translate(-4.39 -11.3)"/><path d="M212,14.77h14.25V41.92h.3a16,16,0,0,1,6.12-7.5,18.06,18.06,0,0,1,9.94-2.61,18.41,18.41,0,0,1,9.82,2.52,16.55,16.55,0,0,1,6.32,7.1,24.92,24.92,0,0,1,2.22,10.94V85.23H246.63V55.3c0-3.65-.86-6.5-2.58-8.57s-4.22-3.1-7.47-3.1a9.81,9.81,0,0,0-5.45,1.49,10,10,0,0,0-3.61,4.1,13.31,13.31,0,0,0-1.3,6v30H212Z" transform="translate(-4.39 -11.3)"/></g></g></svg>