<svg id="Layer_1" data-name="Layer 1" xmlns="http://www.w3.org/2000/svg" viewBox="0 0 30.64 8.81"><defs><style>.cls-1{fill:#fff;}</style></defs><g id="Layer_2" data-name="Layer 2"><g id="Layer_1-2" data-name="Layer 1-2"><path class="cls-1" d="M.23,1.36A.73.73,0,0,1,0,.8.77.77,0,0,1,.23.23.83.83,0,0,1,.81,0a.79.79,0,0,1,.81.77v0a.77.77,0,0,1-.18.56.78.78,0,0,1-.58.24A.77.77,0,0,1,.23,1.36ZM.08,2.47H1.54V8.68H.08Z" transform="translate(0 0)"/><path class="cls-1" d="M2.68.24H4.19V8.7H2.68Zm.76,4.44H5.56a1.78,1.78,0,0,0,1.27-.42,1.53,1.53,0,0,0,.45-1.18h0A1.53,1.53,0,0,0,6.83,1.9a1.79,1.79,0,0,0-1.27-.43H3.44V.24h2.5a3.12,3.12,0,0,1,1.5.35,2.53,2.53,0,0,1,1,1,3,3,0,0,1,.38,1.48h0a3.11,3.11,0,0,1-.38,1.49,2.53,2.53,0,0,1-1,1,3.12,3.12,0,0,1-1.5.35H3.44Z" transform="translate(0 0)"/><path class="cls-1" d="M9.83,8.57a1.77,1.77,0,0,1-.74-.67,1.85,1.85,0,0,1-.26-1h0a1.59,1.59,0,0,1,.61-1.29,3,3,0,0,1,1.74-.55l2.38-.15v1L11.44,6a1.62,1.62,0,0,0-.83.26.72.72,0,0,0-.28.59h0a.7.7,0,0,0,.29.6,1.18,1.18,0,0,0,.77.22,1.75,1.75,0,0,0,.75-.17,1.28,1.28,0,0,0,.52-.46,1.22,1.22,0,0,0,.2-.67V4.53a1,1,0,0,0-.3-.74,1.24,1.24,0,0,0-.85-.27,1.37,1.37,0,0,0-.83.22.92.92,0,0,0-.38.56v.06H9.1V4.29a2,2,0,0,1,.37-1,2.12,2.12,0,0,1,.9-.69,3.3,3.3,0,0,1,1.35-.25,3.16,3.16,0,0,1,1.35.26,2,2,0,0,1,.89.72,1.93,1.93,0,0,1,.31,1.14V8.74H12.82v-1h0a2,2,0,0,1-.45.56,1.83,1.83,0,0,1-.65.37A2.27,2.27,0,0,1,11,8.8,2.53,2.53,0,0,1,9.83,8.57Z" transform="translate(0 0)"/><path class="cls-1" d="M16.07,8.4A1.75,1.75,0,0,1,15.6,7V3.61h-.88V2.47h.88V.91h1.48V2.47h1.16V3.61H17.08V6.9a.74.74,0,0,0,.21.62.85.85,0,0,0,.59.18h.36V8.8h-.73A2.18,2.18,0,0,1,16.07,8.4Z" transform="translate(0 0)"/><path class="cls-1" d="M20,8.47a2.64,2.64,0,0,1-1-1.12,4,4,0,0,1-.37-1.72h0A3.74,3.74,0,0,1,19,3.92,2.71,2.71,0,0,1,20,2.8a3.08,3.08,0,0,1,1.57-.39A3,3,0,0,1,23,2.72a2.51,2.51,0,0,1,.94.83,2.32,2.32,0,0,1,.39,1.14H23a1.34,1.34,0,0,0-.42-.77,1.45,1.45,0,0,0-1.72-.07,1.69,1.69,0,0,0-.53.71,3.13,3.13,0,0,0-.19,1.09h0a2.75,2.75,0,0,0,.2,1.1,1.53,1.53,0,0,0,.53.7,1.48,1.48,0,0,0,1.7-.06A1.36,1.36,0,0,0,23,6.6V6.47h1.38A2.29,2.29,0,0,1,24,7.63a2.48,2.48,0,0,1-.94.82,3,3,0,0,1-1.38.3A3.18,3.18,0,0,1,20,8.47Z" transform="translate(0 0)"/><path class="cls-1" d="M25,.24h1.42V3.53h0a2,2,0,0,1,.74-.87,2.22,2.22,0,0,1,1.26-.3,2.18,2.18,0,0,1,1.17.31,2,2,0,0,1,.76.86,2.92,2.92,0,0,1,.27,1.3V8.7H29.16V5.12A1.68,1.68,0,0,0,28.81,4a1.19,1.19,0,0,0-1-.41,1.32,1.32,0,0,0-.72.19,1.44,1.44,0,0,0-.47.54,1.7,1.7,0,0,0-.17.8V8.7H25Z" transform="translate(0 0)"/></g></g></svg>